<svg width="1728" height="401" viewBox="0 0 1728 401" fill="none" xmlns="http://www.w3.org/2000/svg">
<g filter="url(#filter0_d_256_183)">
<path d="M-400.889 370.764C-370.849 354.439 -355.116 345.113 -333.831 347.963C-323.291 343.403 -312.29 338.786 -303.956 334.893C-299.678 330.506 -294.944 326.587 -289.837 323.201C-284.952 319.872 -280.015 316.971 -275.404 314.081C-270.775 310.695 -266.54 308.62 -262.966 305.063C-259.295 299.409 -256.57 298.098 -254.831 293.663C-249.029 299.494 -242.861 300.725 -236.705 300.452C-230.742 304.59 -224.261 296.992 -218.572 301.107C-212.906 305.833 -206.556 291.873 -201.471 296.017C-196.227 296.923 -190.829 286.412 -186.451 285.563C-181.691 276.727 -177.849 275.302 -174.555 270.138C-174.441 267.766 -171.904 278.261 -171.961 279.395C-167.834 284.976 -161.82 278.711 -154.29 260.618C-147.86 265.788 -139.401 248.978 -131.033 246.938C-121.993 230.977 -113.134 231.758 -104.242 237.538C-95.304 242.588 -85.2772 230.378 -75.9516 231.53C-66.8312 236.181 -56.85 222.717 -48.2255 228.013C-39.2875 226.901 -31.9627 250.671 -23.076 226.126C-15.6656 232.642 -8.25531 222.364 -2.55505 224.986C3.39032 222.563 7.93344 226.246 11.3137 223.732C14.369 228.053 16.7289 216.436 16.4895 221.486C22.7598 217.234 28.3461 220.135 33.5048 228.173C38.4583 240.291 43.5886 245.484 49.4655 235.782C54.3792 246.715 60.6494 230.048 65.8424 241.939C71.4229 245.399 77.1232 251.829 83.9863 244.219C90.04 239.602 94.9194 246.841 99.0578 246.105C103.339 242.435 105.744 254.365 107.431 246.852C111.422 252.997 115.509 258.583 120.639 247.65C125.199 248.79 129.725 255.061 135.083 252.513C140.63 246.026 145.258 266.678 151.911 256.742C158.415 249.811 164.337 266.182 172.26 255.665C182.681 258.236 189.036 265.253 193.505 268.473C197.439 282.935 199.912 284.56 202.489 278.112C204.621 280.9 206.724 278.232 209.968 282.901C213.319 285.375 218.387 283.1 226.715 281.151C232.005 270.508 236.206 286.116 241.638 282.114C246.444 291.234 252.201 286.423 257.565 298.075C262.781 312.81 269.798 298.32 277.105 288.196C276.125 270.525 276.113 287.404 278.656 288.413C281.221 289.04 285.069 300.098 290.125 305.713C292.513 311.83 296.669 300.97 299.154 310.957C301.844 316.509 303.646 326.679 304.233 314.492C308.611 299.38 312.84 299.671 317.549 299.711C322.679 291.041 328.26 282.61 333.321 291.822C339.352 281.025 344.482 295.971 350.878 288.8C356.67 294.221 362.9 294.854 369.535 288.624C375.971 286.594 382.743 279.042 388.608 289.268C392.245 296.234 396.702 285.808 400.436 289.188C404.763 280.427 407.75 298.257 411.996 288.139C415.787 287.615 419.612 284.52 423.129 285.386C426.72 284.816 430.288 282.279 433.64 281.179C433.406 285.945 430.625 280.512 430.602 281.031C430.636 280.33 432.437 274.533 434.945 269.83C437.186 270.662 440.583 263.36 443.627 263.4C447.247 259.284 450.559 260.681 453.887 261.257C457.507 255.522 460.431 263.394 464.023 256.964C467.237 258.378 470.646 255.22 473.998 253.054C477.333 251.133 480.479 252.986 483.791 251.401C490.147 253.624 497.084 243.991 503.366 249.776C506.678 249.132 510.371 241.095 513.284 249.999C516.043 262.1 519.611 258.042 523.471 248.984C524.611 248.334 529.781 224.701 534.301 245.632C540.064 240.474 546.3 255.824 553.397 252.148C560.494 248.471 567.556 244.458 572.305 255.961C576.796 259.461 580.325 259.421 583.859 262.169C587.598 260.584 591.07 267.595 596.075 272.258C601.604 265.914 608.114 268.793 617.092 276.248C623.362 277.463 629.239 274.208 634.301 279.321C639.636 278.819 643.809 293.572 648.95 281.812C653.704 278.192 657.466 288.835 661.565 289.103C661.759 289.103 665.453 284.947 670.868 282.747C676.568 274.989 683.505 278.118 690.819 279.897C694.266 278.402 698.014 277.733 701.765 277.94C705.516 278.148 709.167 279.228 712.428 281.094C721.908 279.954 728.389 284.873 733.844 286.292C739.311 287.826 743.694 287.432 748.916 277.577C753.824 274.031 759.233 267.955 766.216 269.14C774.077 265.372 780.9 268.245 787.558 263.514C793.948 264.255 800.303 254.519 805.229 267.202C811.18 258.35 815.814 269.26 820.773 269.408C823.053 253.801 824.41 272.891 826.981 267.869C829.449 264.882 832.048 260.236 833.542 264.449C836.301 260.903 838.518 263.982 841.283 259.986C843.933 258.276 846.8 256.52 850.101 259.227C859.341 263.218 869.453 249.127 874.732 254.211C880.854 241.773 882.04 250.717 875.792 251.361C877.035 256.942 880.352 247.462 885.152 248.75C890.071 247.177 897.47 234.887 906.665 238.308C912.496 245.883 919.496 230.048 923.965 232.037C928.348 235.782 931.501 230.247 930.76 235.264C936.004 225.357 941.288 224.792 946.681 220.215C952.341 210.217 957.266 213.848 961.581 216.914C966.711 203.348 969.903 216.145 972.343 219.981C974.509 229.421 975.843 231.33 975.854 224.04C985.63 213.893 993.183 230.983 1000.43 219.263C1007.09 219.924 1012.05 220.87 1014.68 218.91C1016.82 227.3 1017.1 222.82 1013.97 221.629C1016.91 221.914 1022.83 223.151 1029.68 224.901C1036.71 222.774 1044.54 223.983 1051.15 226.708C1057.53 234.448 1063.46 228.001 1066.06 224.103C1072.56 229.432 1079.32 223.487 1085.7 226.787C1092.54 220.711 1099.5 213.631 1105.92 226.588C1113.33 218.818 1120.04 235.452 1128.6 229.797C1132.9 223.721 1136.88 223.527 1140.9 229.484C1145.13 231.108 1150.12 223.863 1155.22 228.6C1160.95 220.357 1167.72 205.115 1173.6 230.122C1181.29 217.581 1188.35 240.109 1198.07 237.031C1200.02 219.331 1202.4 229.256 1206.2 238.467C1208.56 233.536 1210.81 237.897 1213.37 242.098C1215.89 247.132 1219.19 242.138 1222.22 247.89C1225.26 253.533 1228.96 250.552 1232.55 253.875C1236.15 257.198 1240.4 251.145 1244.39 253.658C1248.59 251.754 1252.8 252.718 1257.23 251.378C1261.92 244.612 1266.45 243.244 1270.91 244.167C1272.1 246.955 1273.73 248.203 1275.83 245.917C1277.31 256.497 1279.59 256.965 1282.39 251.686C1284.63 258.122 1287.2 262.859 1290.21 262.585C1293.13 264.09 1296.15 267.715 1299.64 264.5C1303.49 253.67 1306.25 268.542 1309.9 266.376C1313.4 267.863 1316.97 269.397 1320.69 268.479C1328.79 253.191 1336.02 258.526 1343.62 249.497C1349.58 259.826 1356.26 232.265 1360.47 237.926C1365.34 229.945 1368.25 244.623 1371.87 232.431C1379.56 215.381 1382.55 240.411 1386.75 236.227C1390.29 245.838 1393.99 248.123 1400.34 242.537C1405.57 239.419 1410.21 255.391 1416.25 244.544C1421.89 242.104 1427.6 240.73 1432.87 245.912C1439.1 231.222 1443.41 254.12 1449.07 241.842C1453.67 241.272 1457.81 234.249 1461.61 228.942C1465.57 219.884 1468.25 231.382 1472.44 214.817C1476.35 204.722 1480.42 195.573 1484.28 204.163C1488.16 212.349 1493.92 195.573 1499.71 201.672C1507.3 202.139 1515.16 191.982 1521.73 204.522C1528.64 209.937 1536.08 200.629 1542.72 204.391C1549.43 206.973 1556.26 203.753 1562.92 201.775C1568.7 218.146 1576.37 193.065 1582.56 197.163C1589.24 191.189 1595.73 187.866 1601.87 191.064C1607.23 210.638 1614.41 191.748 1621.09 183.978C1627.17 188.624 1634.2 173.456 1640.47 176.391C1647.31 167.106 1653.53 171.341 1660.19 168.816C1663.61 169.847 1667.54 163.036 1670.99 169.722C1674.79 169.249 1678.59 171.934 1682.7 171.329C1686.54 176.3 1691.36 164.084 1695.3 173.04C1699.48 176.79 1704.34 169.523 1708.74 174.18C1713.67 166.689 1718.74 164.814 1723.56 171.421C1728.39 178.141 1734.43 162.973 1739.46 167.123C1745.12 157.928 1749.56 172.373 1754.85 162.038C1762.06 161.331 1768.95 151.88 1773.66 154.542C1779 143.233 1782.06 145.519 1782.5 149.412C1790.85 148.677 1798.07 144.282 1804.46 143.375C1810.73 145.331 1816.43 144.795 1822.79 130.624C1828.73 125.579 1834.03 134.004 1841.03 120.363C1846.52 138.604 1854.65 116.105 1862.74 121.771C1869.2 126.759 1875.93 126.138 1882.42 129.752C1888.87 134.42 1894.96 146.134 1902.04 135.954C1909.1 126.554 1915.34 132.955 1921.54 138.65C1928.01 138.713 1934.87 129.267 1940.85 136.073C1946.95 140.32 1953.02 143.267 1959.91 126.474C1964.6 124.012 1969.6 131.034 1975.25 124.166C1981.04 114.418 1985.81 125.91 1990.57 121.885C1994.29 116.995 1998.55 126.229 2004.68 116.396C2010.09 121.213 2016.93 115.547 2024.35 109.932C2032.11 97.209 2038.7 121.207 2047.56 103.4C2055.72 100.31 2064.54 88.955 2072.32 97.6992C2079.42 120.666 2088.85 94.2791 2096.62 93.7091C2104.27 95.9208 2111.52 98.1724 2118.45 92.3467C2124.54 103.987 2131.17 89.3654 2135.81 94.5071C2140.18 91.2921 2143.55 101.279 2147.16 91.4119C2150.38 89.7018 2153.01 85.4152 2154.54 82.9755C2156.25 77.1669 2156.99 68.9414 2155.78 73.9976C2154.96 70.7199 2152.75 68.3258 2148.71 69.3405C2149.51 70.3095 2150.42 65.0596 2151.37 61.7078C2153.03 56.4305 2154.36 51.0564 2155.36 45.616C2156.86 44.9947 2159.19 37.6755 2162.59 26.4118C2165.87 17.6619 2169.83 12.8851 2174.97 9.46494C2178.08 2.58136 2180.83 -4.45834 2183.21 -11.626C2190.05 -32.0215 2193.04 -50.08 2195.97 -62.5293C2200.02 -85.9973 2200.09 -107.692 2193.08 -123.807C2186.06 -139.922 2171.99 -150.467 2147.67 -151.636L-369.851 -273C-369.851 -273 -379.411 -74.306 -387.961 102.311C-389.671 137.652 -391.324 172.071 -392.852 203.861C-383.349 248.557 -391.615 265.617 -396.984 289.519C-399.481 300.247 -404.862 341.106 -399.835 348.687C-396.819 362.972 -407.285 376.402 -400.889 370.764Z" fill="white"/>
</g>
<defs>
<filter id="filter0_d_256_183" x="-403" y="-273" width="2618.74" height="673.081" filterUnits="userSpaceOnUse" color-interpolation-filters="sRGB">
<feFlood flood-opacity="0" result="BackgroundImageFix"/>
<feColorMatrix in="SourceAlpha" type="matrix" values="0 0 0 0 0 0 0 0 0 0 0 0 0 0 0 0 0 0 127 0" result="hardAlpha"/>
<feOffset dx="13" dy="24"/>
<feGaussianBlur stdDeviation="2"/>
<feComposite in2="hardAlpha" operator="out"/>
<feColorMatrix type="matrix" values="0 0 0 0 0 0 0 0 0 0 0 0 0 0 0 0 0 0 0.25 0"/>
<feBlend mode="normal" in2="BackgroundImageFix" result="effect1_dropShadow_256_183"/>
<feBlend mode="normal" in="SourceGraphic" in2="effect1_dropShadow_256_183" result="shape"/>
</filter>
</defs>
</svg>
