<svg width="1728" height="608" viewBox="0 0 1728 608" fill="none" xmlns="http://www.w3.org/2000/svg">
<g filter="url(#filter0_d_256_184)">
<path d="M-50.8891 27.3161C-20.8487 43.6417 -5.11602 52.9673 16.1687 50.1171C26.7085 54.6773 37.71 59.2946 46.0438 63.1879C50.3224 67.5746 55.0555 71.4938 60.1633 74.8791C65.0485 78.2081 69.9849 81.1095 74.5964 83.9995C79.225 87.3854 83.4603 89.4603 87.0343 93.0173C90.7053 98.6719 93.43 99.983 95.1686 104.418C100.971 98.5864 107.139 97.3552 113.295 97.6288C119.258 93.4904 125.739 101.089 131.428 96.9733C137.094 92.2477 143.444 106.208 148.529 102.064C153.773 101.157 159.171 111.669 163.549 112.518C168.309 121.353 172.151 122.778 175.445 127.943C175.559 130.314 178.096 119.82 178.039 118.686C182.166 113.105 188.18 119.37 195.71 137.462C202.14 132.292 210.599 149.102 218.967 151.143C228.007 167.104 236.866 166.323 245.758 160.543C254.696 155.492 264.723 167.702 274.048 166.551C283.169 161.899 293.15 175.363 301.775 170.068C310.712 171.179 318.037 147.409 326.924 171.954C334.334 165.439 341.745 175.717 347.445 173.095C353.39 175.517 357.933 171.835 361.314 174.349C364.369 170.028 366.729 181.645 366.49 176.594C372.76 180.847 378.346 177.945 383.505 169.908C388.458 157.789 393.589 152.596 399.466 162.298C404.379 151.365 410.649 168.033 415.842 156.142C421.423 152.682 427.123 146.252 433.986 153.862C440.04 158.479 444.919 151.24 449.058 151.975C453.339 155.646 455.744 143.715 457.431 151.228C461.422 145.083 465.509 139.497 470.639 150.43C475.199 149.29 479.725 143.02 485.083 145.568C490.63 152.055 495.258 131.403 501.911 141.338C508.415 148.27 514.337 131.899 522.26 142.416C532.681 139.845 539.036 132.828 543.505 129.607C547.439 115.146 549.912 113.521 552.489 119.968C554.621 117.181 556.724 119.848 559.968 115.18C563.319 112.706 568.387 114.98 576.715 116.93C582.005 127.572 586.206 111.965 591.638 115.966C596.444 106.846 602.201 111.657 607.565 100.006C612.781 85.2706 619.798 99.7607 627.105 109.884C626.125 127.555 626.113 110.677 628.656 109.668C631.221 109.041 635.069 97.9822 640.125 92.3674C642.513 86.251 646.669 97.1101 649.154 87.1232C651.844 81.5712 653.646 71.4019 654.233 83.5891C658.611 98.7004 662.84 98.4097 667.549 98.3698C672.679 107.04 678.26 115.471 683.321 106.259C689.352 117.055 694.482 102.109 700.878 109.28C706.67 103.859 712.9 103.226 719.535 109.457C725.971 111.486 732.743 119.039 738.608 108.813C742.245 101.847 746.702 112.273 750.436 108.893C754.763 117.654 757.75 99.8234 761.996 109.941C765.787 110.466 769.612 113.561 773.129 112.695C776.72 113.265 780.288 115.801 783.64 116.901C783.406 112.136 780.625 117.568 780.602 117.05C780.636 117.751 782.437 123.548 784.945 128.251C787.186 127.418 790.583 134.72 793.627 134.68C797.247 138.796 800.559 137.4 803.887 136.824C807.507 142.558 810.431 134.686 814.023 141.116C817.237 139.702 820.646 142.86 823.998 145.026C827.333 146.947 830.479 145.095 833.791 146.68C840.147 144.456 847.084 154.09 853.366 148.304C856.678 148.948 860.371 156.986 863.284 148.082C866.043 135.98 869.611 140.039 873.471 149.096C874.611 149.746 879.781 173.38 884.301 152.448C890.064 157.607 896.3 142.256 903.397 145.933C910.494 149.609 917.556 153.622 922.305 142.119C926.796 138.619 930.325 138.659 933.859 135.912C937.598 137.496 941.07 130.485 946.075 125.822C951.604 132.167 958.114 129.288 967.092 121.832C973.362 120.618 979.239 123.873 984.301 118.76C989.636 119.261 993.809 104.509 998.95 116.269C1003.7 119.888 1007.47 109.246 1011.56 108.978C1011.76 108.978 1015.45 113.133 1020.87 115.334C1026.57 123.092 1033.51 119.962 1040.82 118.184C1044.27 119.678 1048.01 120.348 1051.77 120.14C1055.52 119.932 1059.17 118.853 1062.43 116.987C1071.91 118.127 1078.39 113.208 1083.84 111.788C1089.31 110.255 1093.69 110.648 1098.92 120.504C1103.82 124.049 1109.23 130.126 1116.22 128.94C1124.08 132.708 1130.9 129.835 1137.56 134.566C1143.95 133.825 1150.3 143.562 1155.23 130.878C1161.18 139.731 1165.81 128.821 1170.77 128.672C1173.05 144.28 1174.41 125.19 1176.98 130.211C1179.45 133.198 1182.05 137.844 1183.54 133.632C1186.3 137.177 1188.52 134.099 1191.28 138.095C1193.93 139.805 1196.8 141.561 1200.1 138.853C1209.34 134.863 1219.45 148.954 1224.73 143.869C1230.85 156.307 1232.04 147.364 1225.79 146.719C1227.03 141.139 1230.35 150.618 1235.15 149.33C1240.07 150.903 1247.47 163.193 1256.66 159.773C1262.5 152.197 1269.5 168.033 1273.96 166.043C1278.35 162.298 1281.5 167.833 1280.76 162.817C1286 172.724 1291.29 173.288 1296.68 177.866C1302.34 187.864 1307.27 184.233 1311.58 181.166C1316.71 194.733 1319.9 181.936 1322.34 178.099C1324.51 168.66 1325.84 166.75 1325.85 174.041C1335.63 184.187 1343.18 167.098 1350.43 178.818C1357.09 178.156 1362.05 177.21 1364.68 179.171C1366.82 170.78 1367.1 175.261 1363.97 176.452C1366.91 176.167 1372.83 174.93 1379.68 173.18C1386.71 175.306 1394.54 174.098 1401.15 171.373C1407.53 163.632 1413.46 170.079 1416.06 173.978C1422.56 168.648 1429.32 174.594 1435.7 171.293C1442.54 177.37 1449.5 184.449 1455.92 171.493C1463.33 179.262 1470.04 162.629 1478.6 168.284C1482.9 174.36 1486.88 174.554 1490.9 168.597C1495.13 166.972 1500.12 174.217 1505.22 169.481C1510.95 177.723 1517.72 192.966 1523.6 167.959C1531.29 180.499 1538.35 157.972 1548.07 161.05C1550.02 178.749 1552.4 168.825 1556.2 159.613C1558.56 164.544 1560.81 160.183 1563.37 155.982C1565.89 150.949 1569.19 155.942 1572.22 150.191C1575.26 144.548 1578.96 147.529 1582.55 144.206C1586.15 140.882 1590.4 146.936 1594.39 144.422C1598.59 146.326 1602.8 145.363 1607.23 146.702C1611.92 153.469 1616.45 154.837 1620.91 153.913C1622.1 151.126 1623.73 149.877 1625.83 152.163C1627.31 141.583 1629.59 141.116 1632.39 146.394C1634.63 139.959 1637.2 135.222 1640.21 135.496C1643.13 133.991 1646.15 130.365 1649.64 133.58C1653.49 144.411 1656.25 129.539 1659.9 131.705C1663.4 130.217 1666.97 128.684 1670.69 129.602C1678.79 144.89 1686.02 139.554 1693.62 148.583C1699.58 138.255 1706.26 165.815 1710.47 160.155C1715.34 168.135 1718.25 153.457 1721.87 165.65C1729.56 182.699 1732.55 157.67 1736.75 161.854C1740.29 152.243 1743.99 149.957 1750.34 155.543C1755.57 158.661 1760.21 142.689 1766.25 153.537C1771.89 155.977 1777.6 157.35 1782.87 152.169C1789.1 166.858 1793.41 143.96 1799.07 156.239C1803.67 156.809 1807.81 163.832 1811.61 169.139C1815.57 178.196 1818.25 166.699 1822.44 183.264C1826.35 193.359 1830.42 202.508 1834.28 193.918C1838.16 185.732 1843.92 202.508 1849.71 196.409C1857.3 195.941 1865.16 206.099 1871.73 193.558C1878.64 188.143 1886.08 197.452 1892.72 193.69C1899.43 191.107 1906.26 194.328 1912.92 196.306C1918.7 179.935 1926.37 205.016 1932.56 200.917C1939.24 206.891 1945.73 210.215 1951.87 207.017C1957.23 187.442 1964.41 206.333 1971.09 214.102C1977.17 209.456 1984.2 224.625 1990.47 221.689C1997.31 230.975 2003.53 226.74 2010.19 229.265C2013.61 228.233 2017.54 235.045 2020.99 228.359C2024.79 228.832 2028.59 226.147 2032.7 226.751C2036.54 221.78 2041.36 233.996 2045.3 225.041C2049.48 221.29 2054.34 228.558 2058.74 223.901C2063.67 231.391 2068.74 233.266 2073.56 226.66C2078.39 219.939 2084.43 235.108 2089.46 230.958C2095.12 240.152 2099.56 225.708 2104.85 236.042C2112.06 236.749 2118.95 246.2 2123.66 243.538C2129 254.848 2132.06 252.562 2132.5 248.669C2140.85 249.404 2148.07 253.799 2154.46 254.705C2160.73 252.75 2166.43 253.286 2172.79 267.457C2178.73 272.501 2184.03 264.076 2191.03 277.717C2196.52 259.476 2204.65 281.975 2212.74 276.309C2219.2 271.321 2225.93 271.943 2232.42 268.329C2238.87 263.66 2244.96 251.946 2252.04 262.127C2259.1 271.527 2265.34 265.125 2271.54 259.431C2278.01 259.368 2284.87 268.813 2290.85 262.007C2296.95 257.76 2303.02 254.813 2309.91 271.606C2314.6 274.069 2319.6 267.046 2325.25 273.915C2331.04 283.662 2335.81 272.171 2340.57 276.195C2344.29 281.086 2348.55 271.852 2354.68 281.684C2360.09 276.868 2366.93 282.534 2374.35 288.149C2382.11 300.872 2388.7 276.873 2397.56 294.681C2405.72 297.771 2414.54 309.126 2422.32 300.381C2429.42 277.415 2438.85 303.801 2446.62 304.371C2454.27 302.16 2461.52 299.908 2468.45 305.734C2474.54 294.094 2481.17 308.715 2485.81 303.573C2490.18 306.788 2493.55 296.802 2497.16 306.669C2500.38 308.379 2503.01 312.665 2504.54 315.105C2506.25 320.914 2506.99 329.139 2505.78 324.083C2504.96 327.361 2502.75 329.755 2498.71 328.74C2499.51 327.771 2500.42 333.021 2501.37 336.373C2503.03 341.65 2504.36 347.024 2505.36 352.465C2506.86 353.086 2509.19 360.405 2512.59 371.669C2515.87 380.419 2519.83 385.195 2524.97 388.616C2528.08 395.499 2530.83 402.539 2533.21 409.707C2540.05 430.102 2543.04 448.161 2545.97 460.61C2550.02 484.078 2550.09 505.773 2543.08 521.888C2536.06 538.002 2521.99 548.548 2497.67 549.716L-19.8512 671.081C-19.8512 671.081 -29.4105 472.387 -37.9609 295.77C-39.671 260.428 -41.3241 226.01 -42.8517 194.22C-33.3494 149.524 -41.6148 132.463 -46.9844 108.562C-49.4811 97.834 -54.8622 56.9745 -49.8345 49.3932C-46.8191 35.1083 -57.2848 21.6785 -50.8891 27.3161Z" fill="white"/>
</g>
<defs>
<filter id="filter0_d_256_184" x="-53" y="-0.000244141" width="2618.74" height="671.081" filterUnits="userSpaceOnUse" color-interpolation-filters="sRGB">
<feFlood flood-opacity="0" result="BackgroundImageFix"/>
<feColorMatrix in="SourceAlpha" type="matrix" values="0 0 0 0 0 0 0 0 0 0 0 0 0 0 0 0 0 0 127 0" result="hardAlpha"/>
<feOffset dx="13" dy="-22"/>
<feGaussianBlur stdDeviation="2"/>
<feComposite in2="hardAlpha" operator="out"/>
<feColorMatrix type="matrix" values="0 0 0 0 0 0 0 0 0 0 0 0 0 0 0 0 0 0 0.25 0"/>
<feBlend mode="normal" in2="BackgroundImageFix" result="effect1_dropShadow_256_184"/>
<feBlend mode="normal" in="SourceGraphic" in2="effect1_dropShadow_256_184" result="shape"/>
</filter>
</defs>
</svg>
