<svg width="1728" height="857" viewBox="0 0 1728 857" fill="none" xmlns="http://www.w3.org/2000/svg">
<g id="Frame 65">
<rect id="Rectangle 14" x="155" y="129" width="1500" height="500.591" rx="20" fill="url(#paint0_linear_672_123)" fill-opacity="0.3"/>
<path id="Ellipse 1" d="M1522.93 45.9555C1644.3 20.8073 1763.08 98.8111 1788.23 220.182C1813.38 341.553 1735.37 460.33 1614 485.478C1492.63 510.626 1373.85 432.622 1348.71 311.252C1323.56 189.881 1401.56 71.1038 1522.93 45.9555ZM1610.85 470.284C1723.83 446.875 1796.44 336.309 1773.03 223.33C1749.63 110.351 1639.06 37.7398 1526.08 61.1493C1413.1 84.5589 1340.49 195.124 1363.9 308.103C1387.31 421.083 1497.87 493.694 1610.85 470.284Z" fill="#AA80F9"/>
<path id="Ellipse 2" d="M31.0188 580.904C100.065 566.597 167.636 610.973 181.942 680.019C196.249 749.065 151.873 816.636 82.8272 830.942C13.781 845.249 -53.7896 800.873 -68.0961 731.827C-82.4025 662.781 -38.0273 595.21 31.0188 580.904ZM81.0362 822.299C145.309 808.981 186.616 746.082 173.299 681.81C159.981 617.537 97.0822 576.23 32.8098 589.547C-31.4626 602.865 -72.7699 665.764 -59.4525 730.036C-46.1352 794.309 16.7638 835.616 81.0362 822.299Z" fill="#AA80F9"/>
</g>
<defs>
<linearGradient id="paint0_linear_672_123" x1="905" y1="129" x2="905" y2="629.591" gradientUnits="userSpaceOnUse">
<stop stop-color="#C59FFC"/>
<stop offset="1" stop-color="#AA80F9"/>
</linearGradient>
</defs>
</svg>
