<svg xmlns="http://www.w3.org/2000/svg" fill="none" viewBox="0 0 332 245"><g clip-path="url(#a)"><path d="m232.708 118.693-19.935-15.279 89.426.438-69.491 14.841Z" fill="#fff" stroke="#26264F" stroke-width=".311"/><path d="m236.341 142.406-3.495-23.424 69.862-14.921-66.367 38.345Z" fill="#C6C6C6" stroke="#26264F" stroke-width=".311"/><path d="m255.304 159.304-11.376-32.28 59.183-22.95-47.807 55.23Z" fill="#fff" stroke="#26264F" stroke-width=".311"/><path d="m246.875 136.315-10.297 5.954 7.132-14.93 3.165 8.976Z" fill="#6A6A6A" stroke="#26264F" stroke-width=".311"/><path d="M228.704 144.241s-.478.258-1.364.699" stroke="#080808" stroke-miterlimit="10" stroke-width="1.537"/><path d="M224.537 146.267c-11.645 5.356-45.227 18.509-68.192 4.644-28.202-17.003-12.366-47.848 5.655-42.394 18.021 5.455 19.646 40.193 3.716 58.048-15.929 17.855-50.461 23.889-88.83.861-31.188-18.714-48.497-62.587-52.664-74.294" stroke="#080808" stroke-dasharray="3.09 3.09" stroke-miterlimit="10" stroke-width="1.537"/><path d="M23.715 91.665c-.327-.948-.479-1.459-.479-1.459" stroke="#080808" stroke-miterlimit="10" stroke-width="1.537"/></g><defs><clipPath id="a"><path d="m48.504.914 282.723 84.574-47.573 159.032L.931 159.946z" fill="#fff"/></clipPath></defs></svg>