<svg width="254" height="100" viewBox="0 0 254 100" fill="none" xmlns="http://www.w3.org/2000/svg">
<g id="search-engine-icon 1" clip-path="url(#clip0_256_284)">
<path id="Vector" d="M21.1963 8.96064H98.4012C96.4878 11.6994 94.8065 14.5934 93.3751 17.6122H21.2787C19.6259 17.6068 17.9882 17.927 16.4591 18.5545C14.9301 19.182 13.5396 20.1045 12.367 21.2694C11.1945 22.4343 10.2629 23.8187 9.62536 25.3437C8.98786 26.8686 8.65696 28.5042 8.65156 30.157V62.4355C8.66243 65.7593 9.98759 68.9438 12.3378 71.294C14.6881 73.6443 17.8726 74.9695 21.1963 74.9803H96.4855C98.3889 78.0553 100.568 80.951 102.995 83.6319H21.1963C15.5781 83.621 10.193 81.3843 6.22029 77.4116C2.24756 73.4389 0.0108882 68.0538 0 62.4355L0 30.157C0.0108882 24.5387 2.24756 19.1537 6.22029 15.1809C10.193 11.2082 15.5781 8.97153 21.1963 8.96064ZM31.5988 32.1963C31.5988 31.1528 32.0133 30.1521 32.7512 29.4142C33.489 28.6764 34.4897 28.2619 35.5332 28.2619C36.5767 28.2619 37.5774 28.6764 38.3153 29.4142C39.0531 30.1521 39.4676 31.1528 39.4676 32.1963V60.3962C39.4676 61.4397 39.0531 62.4404 38.3153 63.1783C37.5774 63.9161 36.5767 64.3306 35.5332 64.3306C34.4897 64.3306 33.489 63.9161 32.7512 63.1783C32.0133 62.4404 31.5988 61.4397 31.5988 60.3962V32.1963ZM148.168 9.40937e-05C153.93 -0.0118978 159.637 1.12246 164.956 3.33713C172.98 6.65824 179.838 12.2845 184.664 19.5043C189.489 26.724 192.065 35.2127 192.065 43.8965C192.095 51.8697 189.959 59.7014 185.885 66.5553L202.879 85.0944C203.074 85.2951 203.226 85.5334 203.326 85.7947C203.425 86.056 203.471 86.3349 203.459 86.6144C203.448 86.8939 203.379 87.168 203.258 87.4202C203.137 87.6724 202.966 87.8973 202.756 88.0812L190.273 99.4725C190.071 99.6628 189.833 99.8105 189.573 99.9066C189.313 100.003 189.036 100.045 188.759 100.032C188.482 100.018 188.21 99.9491 187.961 99.8282C187.711 99.7073 187.489 99.5373 187.306 99.3283L170.971 81.3866C167.815 83.3181 164.422 84.8343 160.878 85.8978C151.173 88.8333 140.752 88.3239 131.38 84.4558H131.277C120.546 79.975 112.029 71.4226 107.592 60.6731C103.156 49.9235 103.162 37.8535 107.609 27.1083V26.9847C112.097 16.2711 120.643 7.76934 131.38 3.33713C136.7 1.12457 142.407 -0.00970571 148.168 9.40937e-05ZM173.031 19.1159C169.773 15.8653 165.91 13.2832 161.661 11.5149H161.558C155.16 8.86859 148.121 8.17826 141.331 9.53117C134.54 10.8841 128.304 14.2195 123.408 19.1159V19.2395C120.191 22.4649 117.643 26.2941 115.91 30.5072C112.385 39.0853 112.385 48.7077 115.91 57.2858C119.469 65.8361 126.27 72.6284 134.825 76.1762C143.38 79.7241 152.992 79.7384 161.558 76.2162C165.846 74.4726 169.745 71.8961 173.031 68.6358H173.155C176.354 65.4034 178.899 61.5847 180.653 57.3888C184.163 48.8076 184.163 39.1914 180.653 30.6101C178.886 26.3185 176.297 22.4138 173.031 19.1159ZM216.289 79.3061L216.165 79.1825L203.806 65.6696C204.469 64.032 205.046 62.3613 205.536 60.664C209.513 47.4391 208.786 33.2448 203.477 20.4961C201.834 16.461 199.762 12.6143 197.297 9.02244H232.13C237.748 9.03333 243.133 11.27 247.106 15.2427C251.078 19.2155 253.315 24.6005 253.326 30.2188V62.4355C253.325 68.0415 251.103 73.4188 247.146 77.3904C245.183 79.3541 242.851 80.9108 240.285 81.9713C237.719 83.0318 234.968 83.5751 232.191 83.5701H218.967C218.318 82.0096 217.413 80.5685 216.289 79.3061Z" fill="white"/>
</g>
<defs>
<clipPath id="clip0_256_284">
<rect width="253.12" height="99.9667" fill="white"/>
</clipPath>
</defs>
</svg>
