<svg width="220" height="135" viewBox="0 0 220 135" fill="none" xmlns="http://www.w3.org/2000/svg">
<path d="M70.9464 15.2254C69.2835 15.2254 67.9429 13.9144 67.9429 12.2884C67.9429 10.6623 69.2835 9.35133 70.9464 9.35133H134.699V3.3008C134.699 1.67472 136.04 0.36377 137.703 0.36377C139.366 0.36377 140.706 1.67472 140.706 3.3008V9.35133H216.675C218.338 9.35133 219.678 10.6623 219.678 12.2884C219.678 13.9144 218.338 15.2254 216.675 15.2254H209.761V99.6303H216.997C218.66 99.6303 220.001 100.941 220.001 102.567C220.001 104.193 218.66 105.504 216.997 105.504H139.52V108.488C139.684 108.593 139.791 108.698 139.894 108.803L158.285 125.896C159.462 126.996 159.518 128.883 158.392 130.034C157.266 131.19 155.337 131.24 154.155 130.139L139.576 116.563V131.45C139.576 133.076 138.235 134.387 136.573 134.387C134.91 134.387 133.569 133.076 133.569 131.45V115.988L118.345 130.139C117.164 131.24 115.234 131.24 114.109 130.034C112.983 128.883 112.983 126.996 114.216 125.896L132.607 108.803C132.873 108.542 133.247 108.332 133.569 108.173V105.504H70.0655C68.4027 105.504 67.062 104.193 67.062 102.567C67.062 100.941 68.4027 99.6303 70.0655 99.6303H203.754V15.2254H70.9464ZM129.637 87.2099C129.276 87.2099 128.919 87.1404 128.585 87.0052C128.251 86.8701 127.948 86.672 127.693 86.4223C127.438 86.1726 127.235 85.8762 127.097 85.5499C126.959 85.2236 126.887 84.8739 126.887 84.5208C126.887 83.0376 128.121 81.8359 129.637 81.8359H188.234C189.751 81.8359 190.98 83.0376 190.98 84.5208C190.98 86.0082 189.751 87.2099 188.234 87.2099H129.637ZM133.788 69.1466C132.271 69.1466 131.042 67.9449 131.042 66.4616C131.042 64.9742 132.271 63.7725 133.788 63.7725H188.234C189.751 63.7725 190.98 64.9742 190.98 66.4616C190.98 67.9449 189.751 69.1466 188.234 69.1466H133.788ZM124.859 51.0832C123.342 51.0832 122.114 49.8815 122.114 48.3983C122.114 46.9151 123.342 45.7092 124.859 45.7092H188.234C189.751 45.7092 190.98 46.9151 190.98 48.3983C190.98 49.8815 189.751 51.0832 188.234 51.0832H124.859ZM96.5987 33.0198C95.0819 33.0198 93.853 31.8181 93.853 30.3349C93.853 28.8517 95.0819 27.6458 96.5987 27.6458H188.234C189.751 27.6458 190.98 28.8517 190.98 30.3349C190.98 31.8181 189.751 33.0198 188.234 33.0198H96.5987ZM94.6136 68.5331L115.449 47.1714C116.674 45.9108 118.71 45.8646 119.995 47.0579C121.284 48.2554 121.332 50.2471 120.111 51.5034L100.483 71.6298C102.094 73.5374 102.859 76.1047 102.348 78.7224C101.437 83.3821 96.8351 86.4368 92.0741 85.546L70.2847 81.4493C68.1105 81.0796 66.0738 79.9115 64.6773 78.0249L57.6089 68.4743L57.5917 69.3356V68.7138L57.0288 100.58L57.8839 105.353H21.339L22.0952 100.933L21.4249 69.3188V69.3356L21.3132 63.9154L21.2745 63.9574C17.5363 67.6171 17.3773 76.34 16.9605 81.6384L16.0109 93.7731C15.7917 96.542 15.5554 98.1051 13.3382 99.9791C10.1156 102.693 4.6886 103.252 1.82258 99.8194C-0.0293705 97.6093 -0.119605 94.0798 0.0694578 90.8571C1.02336 74.7349 2.96125 50.4697 21.4249 42.4864V42.6881C29.2538 39.646 38.4792 40.9696 46.9011 40.9696C50.9101 40.9696 54.4335 41.5452 57.5616 42.7175C59.5597 43.1671 61.403 44.2974 62.7007 46.0495L76.8632 65.1969L94.6136 68.5331ZM39.4331 1.67892C49.6984 1.67892 58.0171 9.81353 58.0171 19.8515C58.0171 29.8853 49.6984 38.0199 39.4331 38.0199C29.1679 38.0199 20.8491 29.8853 20.8491 19.8515C20.8491 9.81353 29.1679 1.67892 39.4331 1.67892Z" fill="white"/>
</svg>
