<svg width="1728" height="1529" viewBox="0 0 1728 1529" fill="none" xmlns="http://www.w3.org/2000/svg">
<g id="Vid-Bg">
<rect id="Rectangle 15" y="152" width="1732" height="1224" fill="url(#paint0_linear_735_8)"/>
<g id="Vid-Bg_2">
<g id="Vector" filter="url(#filter0_d_735_8)">
<path d="M1.40038 1112.86C21.3292 1123.49 31.7663 1129.56 45.8867 1127.7C52.8788 1130.67 60.1772 1133.68 65.7059 1136.21C68.5443 1139.07 71.6843 1141.62 75.0728 1143.82C78.3136 1145.99 81.5884 1147.88 84.6477 1149.76C87.7183 1151.97 90.528 1153.32 92.8991 1155.63C95.3344 1159.32 97.142 1160.17 98.2954 1163.06C102.145 1159.26 106.237 1158.46 110.321 1158.64C114.276 1155.94 118.576 1160.89 122.35 1158.21C126.109 1155.13 130.321 1164.22 133.695 1161.52C137.174 1160.93 140.755 1167.78 143.659 1168.33C146.817 1174.08 149.365 1175.01 151.551 1178.37C151.627 1179.92 153.31 1173.08 153.272 1172.35C156.01 1168.71 159.999 1172.79 164.995 1184.57C169.26 1181.2 174.872 1192.15 180.423 1193.48C186.421 1203.87 192.297 1203.36 198.197 1199.6C204.126 1196.31 210.778 1204.26 216.965 1203.51C223.015 1200.48 229.637 1209.25 235.358 1205.8C241.288 1206.52 246.147 1191.05 252.042 1207.03C256.958 1202.79 261.874 1209.48 265.656 1207.77C269.6 1209.35 272.614 1206.95 274.857 1208.59C276.883 1205.77 278.449 1213.34 278.29 1210.05C282.45 1212.82 286.156 1210.93 289.578 1205.7C292.864 1197.81 296.268 1194.42 300.167 1200.74C303.426 1193.62 307.586 1204.47 311.031 1196.73C314.733 1194.48 318.515 1190.29 323.068 1195.25C327.084 1198.25 330.321 1193.54 333.066 1194.02C335.906 1196.41 337.502 1188.64 338.621 1193.53C341.268 1189.53 343.98 1185.9 347.383 1193.01C350.408 1192.27 353.411 1188.19 356.966 1189.85C360.645 1194.07 363.716 1180.63 368.129 1187.09C372.444 1191.61 376.373 1180.95 381.629 1187.8C388.542 1186.12 392.758 1181.55 395.723 1179.46C398.332 1170.04 399.973 1168.98 401.683 1173.18C403.097 1171.37 404.492 1173.1 406.644 1170.06C408.868 1168.45 412.23 1169.93 417.754 1171.2C421.264 1178.13 424.051 1167.97 427.654 1170.58C430.842 1164.64 434.662 1167.77 438.22 1160.18C441.68 1150.59 446.335 1160.02 451.183 1166.62C450.533 1178.12 450.525 1167.13 452.212 1166.47C453.914 1166.07 456.466 1158.87 459.82 1155.21C461.405 1151.23 464.162 1158.3 465.81 1151.8C467.595 1148.18 468.79 1141.56 469.18 1149.5C472.084 1159.33 474.89 1159.14 478.014 1159.12C481.417 1164.76 485.119 1170.25 488.477 1164.26C492.478 1171.28 495.882 1161.55 500.124 1166.22C503.966 1162.69 508.1 1162.28 512.501 1166.34C516.771 1167.66 521.263 1172.58 525.155 1165.92C527.567 1161.38 530.524 1168.17 533.001 1165.97C535.871 1171.67 537.853 1160.07 540.67 1166.65C543.185 1166.99 545.722 1169.01 548.056 1168.45C550.438 1168.82 552.805 1170.47 555.029 1171.18C554.874 1168.08 553.028 1171.62 553.013 1171.28C553.036 1171.74 554.231 1175.51 555.895 1178.57C557.381 1178.03 559.635 1182.79 561.654 1182.76C564.055 1185.44 566.253 1184.53 568.461 1184.16C570.862 1187.89 572.802 1182.76 575.185 1186.95C577.317 1186.03 579.579 1188.09 581.802 1189.5C584.015 1190.75 586.102 1189.54 588.299 1190.57C592.516 1189.12 597.118 1195.4 601.285 1191.63C603.482 1192.05 605.933 1197.28 607.865 1191.49C609.695 1183.61 612.062 1186.25 614.623 1192.15C615.379 1192.57 618.809 1207.96 621.807 1194.33C625.631 1197.69 629.768 1187.69 634.476 1190.09C639.184 1192.48 643.869 1195.09 647.019 1187.6C649.999 1185.32 652.34 1185.35 654.684 1183.56C657.165 1184.59 659.468 1180.03 662.788 1176.99C666.456 1181.12 670.775 1179.25 676.731 1174.39C680.891 1173.6 684.789 1175.72 688.147 1172.39C691.687 1172.72 694.455 1163.12 697.866 1170.77C701.02 1173.13 703.516 1166.2 706.235 1166.03C706.363 1166.03 708.814 1168.73 712.406 1170.16C716.188 1175.21 720.79 1173.18 725.642 1172.02C727.928 1172.99 730.415 1173.43 732.903 1173.29C735.392 1173.16 737.814 1172.45 739.977 1171.24C746.266 1171.98 750.566 1168.78 754.185 1167.86C757.811 1166.86 760.719 1167.11 764.183 1173.53C767.439 1175.84 771.028 1179.79 775.66 1179.02C780.875 1181.48 785.402 1179.61 789.818 1182.69C794.058 1182.2 798.274 1188.54 801.541 1180.28C805.489 1186.05 808.564 1178.94 811.854 1178.85C813.366 1189.01 814.266 1176.58 815.972 1179.85C817.609 1181.79 819.334 1184.82 820.324 1182.08C822.155 1184.39 823.626 1182.38 825.46 1184.98C827.218 1186.1 829.12 1187.24 831.31 1185.48C837.44 1182.88 844.148 1192.05 847.65 1188.74C851.711 1196.84 852.498 1191.02 848.353 1190.6C849.178 1186.96 851.379 1193.14 854.563 1192.3C857.826 1193.32 862.735 1201.32 868.834 1199.1C872.703 1194.16 877.347 1204.47 880.311 1203.18C883.219 1200.74 885.31 1204.35 884.819 1201.08C888.298 1207.53 891.803 1207.9 895.381 1210.88C899.136 1217.39 902.403 1215.02 905.266 1213.03C908.669 1221.86 910.787 1213.53 912.405 1211.03C913.842 1204.88 914.727 1203.64 914.735 1208.39C921.22 1214.99 926.231 1203.87 931.041 1211.5C935.458 1211.07 938.744 1210.45 940.495 1211.73C941.909 1206.26 942.094 1209.18 940.022 1209.96C941.97 1209.77 945.899 1208.97 950.44 1207.83C955.107 1209.21 960.299 1208.42 964.689 1206.65C968.921 1201.61 972.854 1205.81 974.578 1208.35C978.893 1204.88 983.374 1208.75 987.609 1206.6C992.147 1210.55 996.761 1215.16 1001.02 1206.73C1005.94 1211.79 1010.39 1200.96 1016.07 1204.64C1018.92 1208.59 1021.56 1208.72 1024.23 1204.84C1027.03 1203.78 1030.34 1208.5 1033.73 1205.42C1037.53 1210.78 1042.02 1220.71 1045.92 1204.43C1051.02 1212.59 1055.71 1197.92 1062.16 1199.93C1063.44 1211.45 1065.03 1204.99 1067.54 1198.99C1069.11 1202.2 1070.6 1199.36 1072.3 1196.63C1073.98 1193.35 1076.17 1196.6 1078.17 1192.86C1080.19 1189.18 1082.64 1191.13 1085.03 1188.96C1087.42 1186.8 1090.23 1190.74 1092.88 1189.1C1095.67 1190.34 1098.46 1189.71 1101.4 1190.59C1104.51 1194.99 1107.52 1195.88 1110.48 1195.28C1111.27 1193.47 1112.34 1192.65 1113.74 1194.14C1114.72 1187.25 1116.23 1186.95 1118.09 1190.39C1119.57 1186.2 1121.28 1183.11 1123.28 1183.29C1125.22 1182.31 1127.22 1179.95 1129.54 1182.04C1132.09 1189.1 1133.92 1179.41 1136.34 1180.82C1138.66 1179.85 1141.03 1178.86 1143.5 1179.45C1148.87 1189.41 1153.67 1185.93 1158.71 1191.81C1162.67 1185.09 1167.09 1203.03 1169.89 1199.35C1173.12 1204.54 1175.05 1194.99 1177.45 1202.92C1182.56 1214.02 1184.54 1197.73 1187.32 1200.45C1189.67 1194.19 1192.12 1192.71 1196.34 1196.34C1199.81 1198.37 1202.89 1187.97 1206.89 1195.04C1210.64 1196.63 1214.42 1197.52 1217.92 1194.15C1222.05 1203.71 1224.91 1188.8 1228.67 1196.8C1231.72 1197.17 1234.47 1201.74 1236.99 1205.19C1239.61 1211.09 1241.39 1203.61 1244.17 1214.39C1246.77 1220.96 1249.47 1226.92 1252.02 1221.33C1254.6 1216 1258.42 1226.92 1262.26 1222.95C1267.29 1222.65 1272.51 1229.26 1276.87 1221.09C1281.46 1217.57 1286.39 1223.63 1290.8 1221.18C1295.24 1219.5 1299.78 1221.6 1304.2 1222.88C1308.03 1212.22 1313.12 1228.55 1317.23 1225.89C1321.66 1229.78 1325.96 1231.94 1330.04 1229.86C1333.59 1217.11 1338.36 1229.41 1342.79 1234.47C1346.82 1231.45 1351.48 1241.32 1355.64 1239.41C1360.18 1245.46 1364.31 1242.7 1368.73 1244.34C1371 1243.67 1373.6 1248.11 1375.89 1243.75C1378.41 1244.06 1380.93 1242.31 1383.66 1242.71C1386.21 1239.47 1389.4 1247.42 1392.01 1241.59C1394.79 1239.15 1398.01 1243.88 1400.93 1240.85C1404.2 1245.73 1407.57 1246.95 1410.77 1242.65C1413.97 1238.27 1417.98 1248.15 1421.31 1245.44C1425.07 1251.43 1428.01 1242.03 1431.52 1248.75C1436.3 1249.22 1440.88 1255.37 1444 1253.64C1447.55 1261 1449.57 1259.51 1449.86 1256.98C1455.4 1257.45 1460.19 1260.32 1464.43 1260.91C1468.59 1259.63 1472.37 1259.98 1476.6 1269.21C1480.54 1272.49 1484.05 1267.01 1488.7 1275.89C1492.34 1264.01 1497.73 1278.66 1503.1 1274.97C1507.38 1271.72 1511.84 1272.13 1516.15 1269.78C1520.43 1266.74 1524.47 1259.11 1529.17 1265.74C1533.85 1271.86 1537.99 1267.69 1542.1 1263.98C1546.4 1263.94 1550.95 1270.09 1554.92 1265.66C1558.96 1262.89 1562.99 1260.98 1567.56 1271.91C1570.67 1273.51 1573.99 1268.94 1577.73 1273.41C1581.58 1279.76 1584.74 1272.28 1587.9 1274.9C1590.36 1278.08 1593.2 1272.07 1597.26 1278.47C1600.85 1275.34 1605.38 1279.02 1610.31 1282.68C1615.46 1290.96 1619.83 1275.34 1625.71 1286.93C1631.12 1288.94 1636.97 1296.34 1642.13 1290.64C1646.84 1275.69 1653.1 1292.87 1658.25 1293.24C1663.33 1291.8 1668.14 1290.34 1672.73 1294.13C1676.77 1286.55 1731.82 1286.03 1734.9 1282.68C1737.8 1284.77 1732.5 1284.22 1734.9 1290.64C1737.03 1291.76 1733.89 1296.41 1734.9 1298C1736.03 1301.78 1735.71 1305.29 1734.9 1302C1734.36 1304.13 1737.59 1306.74 1734.9 1306.08C1735.44 1305.45 1734.27 1315.82 1734.9 1318C1736 1321.44 1734.24 1325.46 1734.9 1329C1735.89 1329.4 1732.65 1334.67 1734.9 1342C1737.07 1347.7 1731.49 1357.77 1734.9 1360C1736.96 1364.48 1734.32 1379.33 1735.9 1384C1740.44 1397.28 1733.96 1409.39 1735.9 1417.5C1738.59 1432.78 1740.06 1437.51 1735.4 1448C1730.75 1458.49 1708.25 1452.22 1692.12 1452.98L1.40038 1529C1.40038 1529 7.07272 1400.99 1.40038 1286C0.265909 1262.99 2.41384 1236.7 1.40038 1216C7.70424 1186.9 7.46465 1426.56 3.90242 1411C1.31204 1444.84 -1.23537 1132.17 2.09997 1127.23C4.10042 1117.93 -2.84254 1109.19 1.40038 1112.86Z" fill="white"/>
</g>
<g id="Vector_2" filter="url(#filter1_d_735_8)">
<path d="M1731.02 416.143C1711.09 405.514 1700.65 399.442 1686.53 401.298C1679.54 398.329 1672.24 395.322 1666.71 392.788C1663.87 389.931 1660.73 387.38 1657.34 385.176C1654.1 383.008 1650.83 381.119 1647.77 379.238C1644.7 377.033 1641.89 375.682 1639.52 373.366C1637.08 369.685 1635.27 368.831 1634.12 365.944C1630.27 369.74 1626.18 370.542 1622.1 370.364C1618.14 373.058 1613.84 368.111 1610.07 370.791C1606.31 373.867 1602.09 364.778 1598.72 367.476C1595.24 368.066 1591.66 361.223 1588.76 360.67C1585.6 354.917 1583.05 353.989 1580.86 350.627C1580.79 349.083 1579.11 355.916 1579.14 356.654C1576.41 360.287 1572.42 356.209 1567.42 344.429C1563.16 347.795 1557.54 336.85 1551.99 335.522C1546 325.13 1540.12 325.638 1534.22 329.402C1528.29 332.69 1521.64 324.74 1515.45 325.49C1509.4 328.518 1502.78 319.752 1497.06 323.2C1491.13 322.476 1486.27 337.953 1480.37 321.972C1475.46 326.214 1470.54 319.522 1466.76 321.229C1462.82 319.652 1459.8 322.05 1457.56 320.413C1455.53 323.226 1453.97 315.662 1454.13 318.951C1449.97 316.182 1446.26 318.071 1442.84 323.304C1439.55 331.194 1436.15 334.575 1432.25 328.259C1428.99 335.377 1424.83 324.525 1421.39 332.267C1417.68 334.52 1413.9 338.706 1409.35 333.751C1405.33 330.745 1402.1 335.459 1399.35 334.98C1396.51 332.59 1394.91 340.358 1393.79 335.466C1391.15 339.467 1388.44 343.104 1385.03 335.986C1382.01 336.728 1379 340.81 1375.45 339.151C1371.77 334.928 1368.7 348.374 1364.29 341.905C1359.97 337.392 1356.04 348.051 1350.79 341.204C1343.87 342.878 1339.66 347.446 1336.69 349.543C1334.08 358.959 1332.44 360.017 1330.73 355.819C1329.32 357.634 1327.92 355.897 1325.77 358.937C1323.55 360.547 1320.19 359.066 1314.66 357.797C1311.15 350.868 1308.37 361.03 1304.76 358.424C1301.57 364.363 1297.75 361.23 1294.2 368.816C1290.74 378.41 1286.08 368.976 1281.23 362.384C1281.88 350.879 1281.89 361.869 1280.2 362.525C1278.5 362.934 1275.95 370.134 1272.6 373.789C1271.01 377.772 1268.25 370.701 1266.61 377.204C1264.82 380.819 1263.63 387.44 1263.24 379.505C1260.33 369.666 1257.53 369.855 1254.4 369.881C1251 364.236 1247.3 358.747 1243.94 364.745C1239.94 357.716 1236.53 367.447 1232.29 362.778C1228.45 366.307 1224.32 366.719 1219.91 362.663C1215.65 361.341 1211.15 356.424 1207.26 363.082C1204.85 367.617 1201.89 360.829 1199.41 363.03C1196.54 357.326 1194.56 368.935 1191.75 362.347C1189.23 362.006 1186.69 359.991 1184.36 360.555C1181.98 360.184 1179.61 358.532 1177.39 357.816C1177.54 360.918 1179.39 357.382 1179.4 357.719C1179.38 357.263 1178.19 353.488 1176.52 350.426C1175.03 350.968 1172.78 346.214 1170.76 346.24C1168.36 343.56 1166.16 344.47 1163.95 344.845C1161.55 341.111 1159.61 346.236 1157.23 342.05C1155.1 342.97 1152.84 340.914 1150.61 339.504C1148.4 338.253 1146.31 339.459 1144.12 338.428C1139.9 339.875 1135.3 333.603 1131.13 337.37C1128.93 336.951 1126.48 331.718 1124.55 337.515C1122.72 345.394 1120.35 342.751 1117.79 336.854C1117.04 336.431 1113.61 321.044 1110.61 334.672C1106.79 331.313 1102.65 341.308 1097.94 338.914C1093.23 336.52 1088.55 333.907 1085.4 341.397C1082.42 343.676 1080.08 343.65 1077.73 345.438C1075.25 344.407 1072.95 348.972 1069.63 352.008C1065.96 347.877 1061.64 349.751 1055.69 354.605C1051.53 355.396 1047.63 353.277 1044.27 356.606C1040.73 356.279 1037.96 365.884 1034.55 358.228C1031.4 355.871 1028.9 362.8 1026.18 362.974C1026.05 362.974 1023.6 360.269 1020.01 358.836C1016.23 353.785 1011.63 355.823 1006.77 356.981C1004.49 356.008 1002 355.572 999.513 355.707C997.024 355.842 994.602 356.545 992.439 357.76C986.15 357.018 981.85 360.221 978.231 361.145C974.605 362.143 971.697 361.887 968.233 355.47C964.977 353.162 961.388 349.205 956.756 349.977C951.541 347.524 947.014 349.395 942.598 346.314C938.358 346.797 934.142 340.458 930.875 348.716C926.927 342.952 923.852 350.055 920.562 350.152C919.05 339.99 918.15 352.419 916.444 349.15C914.807 347.205 913.082 344.18 912.092 346.923C910.261 344.614 908.79 346.619 906.956 344.017C905.198 342.904 903.296 341.76 901.106 343.523C894.976 346.121 888.268 336.947 884.766 340.257C880.705 332.159 879.918 337.982 884.063 338.402C883.238 342.035 881.037 335.863 877.853 336.702C874.59 335.678 869.681 327.676 863.582 329.903C859.713 334.835 855.069 324.525 852.105 325.82C849.197 328.259 847.106 324.655 847.597 327.921C844.118 321.471 840.613 321.103 837.035 318.123C833.28 311.613 830.013 313.977 827.15 315.974C823.747 307.141 821.629 315.473 820.011 317.971C818.574 324.117 817.689 325.36 817.681 320.613C811.196 314.007 806.185 325.134 801.375 317.503C796.958 317.934 793.672 318.55 791.921 317.273C790.507 322.736 790.322 319.819 792.394 319.043C790.446 319.229 786.517 320.034 781.976 321.174C777.309 319.789 772.117 320.576 767.727 322.35C763.495 327.39 759.562 323.193 757.838 320.654C753.523 324.124 749.042 320.253 744.807 322.402C740.269 318.446 735.655 313.836 731.394 322.272C726.478 317.214 722.027 328.043 716.347 324.362C713.496 320.406 710.856 320.279 708.19 324.158C705.384 325.215 702.075 320.498 698.687 323.582C694.886 318.216 690.398 308.292 686.495 324.573C681.394 316.408 676.708 331.076 670.261 329.071C668.971 317.548 667.391 324.009 664.872 330.007C663.307 326.796 661.813 329.636 660.111 332.371C658.44 335.648 656.25 332.397 654.242 336.142C652.226 339.816 649.772 337.875 647.386 340.038C645 342.202 642.183 338.261 639.536 339.897C636.749 338.658 633.954 339.285 631.016 338.413C627.904 334.008 624.897 333.117 621.94 333.718C621.15 335.533 620.072 336.346 618.676 334.857C617.697 341.746 616.184 342.05 614.328 338.613C612.841 342.803 611.136 345.887 609.139 345.709C607.199 346.689 605.199 349.05 602.881 346.956C600.324 339.905 598.494 349.588 596.074 348.177C593.756 349.146 591.385 350.144 588.916 349.547C583.542 339.593 578.747 343.067 573.702 337.188C569.751 343.913 565.322 325.969 562.528 329.654C559.298 324.458 557.362 334.015 554.965 326.076C549.86 314.976 547.878 331.272 545.091 328.548C542.743 334.805 540.292 336.294 536.076 332.657C532.608 330.626 529.53 341.026 525.521 333.963C521.778 332.375 517.992 331.48 514.494 334.854C510.361 325.29 507.502 340.198 503.747 332.204C500.699 331.833 497.95 327.26 495.428 323.805C492.803 317.908 491.026 325.394 488.243 314.608C485.649 308.036 482.949 302.079 480.392 307.672C477.817 313.001 473.998 302.079 470.156 306.05C465.122 306.354 459.908 299.741 455.547 307.906C450.96 311.431 446.029 305.371 441.62 307.82C437.173 309.502 432.639 307.405 428.218 306.117C424.387 316.776 419.297 300.446 415.191 303.114C410.759 299.225 406.455 297.061 402.379 299.143C398.824 311.888 394.059 299.589 389.631 294.53C385.6 297.555 380.933 287.679 376.774 289.59C372.236 283.545 368.11 286.302 363.689 284.658C361.42 285.33 358.819 280.895 356.527 285.248C354.009 284.94 351.486 286.688 348.76 286.295C346.211 289.531 343.016 281.578 340.402 287.408C337.627 289.85 334.405 285.118 331.482 288.15C328.215 283.274 324.849 282.053 321.65 286.354C318.45 290.73 314.438 280.854 311.107 283.556C307.348 277.569 304.406 286.974 300.897 280.245C296.113 279.785 291.537 273.632 288.417 275.365C284.87 268.001 282.843 269.49 282.552 272.025C277.012 271.546 272.225 268.684 267.986 268.094C263.826 269.367 260.044 269.018 255.82 259.792C251.88 256.507 248.367 261.993 243.719 253.112C240.078 264.988 234.689 250.339 229.319 254.028C225.035 257.276 220.572 256.871 216.261 259.224C211.984 262.264 207.942 269.891 203.245 263.262C198.567 257.142 194.426 261.31 190.312 265.018C186.02 265.058 181.467 258.909 177.5 263.34C173.454 266.105 169.43 268.024 164.855 257.09C161.746 255.487 158.426 260.059 154.682 255.587C150.84 249.241 147.671 256.723 144.514 254.103C142.052 250.918 139.219 256.931 135.154 250.529C131.566 253.665 127.032 249.976 122.108 246.32C116.957 238.036 112.59 253.661 106.709 242.067C101.298 240.055 95.4478 232.662 90.2822 238.355C85.5742 253.308 79.3157 236.129 74.1652 235.757C69.0903 237.197 64.2762 238.663 59.6816 234.87C55.6429 242.449 0.593818 242.972 -2.48438 246.32C-5.38862 244.227 -0.0868638 244.78 -2.48438 238.355C-4.61718 237.242 -1.4747 232.588 -2.48438 231C-3.61884 227.218 -3.28985 223.708 -2.48438 227C-1.93983 224.866 -5.16929 222.263 -2.48438 222.924C-3.02136 223.555 -1.84907 213.182 -2.48438 211C-3.58405 207.564 -1.82098 203.542 -2.48438 200C-3.47893 199.595 -0.230563 194.334 -2.48438 187C-4.65877 181.303 0.922814 171.227 -2.48438 169C-4.54701 164.518 -1.90401 149.667 -3.48438 145C-8.02225 131.721 -1.54065 119.606 -3.48438 111.5C-6.17307 96.2204 -7.63948 91.4919 -2.98438 81C1.67073 70.5081 24.1651 76.7788 40.2972 76.018L1731.02 0C1731.02 0 1725.34 128.008 1731.02 243C1732.15 266.01 1730 292.302 1731.02 313C1724.71 342.101 1724.95 102.438 1728.51 118C1731.1 84.1564 1733.65 396.833 1730.32 401.769C1728.32 411.07 1735.26 419.814 1731.02 416.143Z" fill="white"/>
</g>
</g>
</g>
<defs>
<filter id="filter0_d_735_8" x="0" y="1086" width="1755.42" height="443" filterUnits="userSpaceOnUse" color-interpolation-filters="sRGB">
<feFlood flood-opacity="0" result="BackgroundImageFix"/>
<feColorMatrix in="SourceAlpha" type="matrix" values="0 0 0 0 0 0 0 0 0 0 0 0 0 0 0 0 0 0 127 0" result="hardAlpha"/>
<feOffset dx="13" dy="-22"/>
<feGaussianBlur stdDeviation="2"/>
<feComposite in2="hardAlpha" operator="out"/>
<feColorMatrix type="matrix" values="0 0 0 0 0 0 0 0 0 0 0 0 0 0 0 0 0 0 0.25 0"/>
<feBlend mode="normal" in2="BackgroundImageFix" result="effect1_dropShadow_735_8"/>
<feBlend mode="normal" in="SourceGraphic" in2="effect1_dropShadow_735_8" result="shape"/>
</filter>
<filter id="filter1_d_735_8" x="-6" y="0" width="1755.42" height="443" filterUnits="userSpaceOnUse" color-interpolation-filters="sRGB">
<feFlood flood-opacity="0" result="BackgroundImageFix"/>
<feColorMatrix in="SourceAlpha" type="matrix" values="0 0 0 0 0 0 0 0 0 0 0 0 0 0 0 0 0 0 127 0" result="hardAlpha"/>
<feOffset dx="13" dy="22"/>
<feGaussianBlur stdDeviation="2"/>
<feComposite in2="hardAlpha" operator="out"/>
<feColorMatrix type="matrix" values="0 0 0 0 0 0 0 0 0 0 0 0 0 0 0 0 0 0 0.25 0"/>
<feBlend mode="normal" in2="BackgroundImageFix" result="effect1_dropShadow_735_8"/>
<feBlend mode="normal" in="SourceGraphic" in2="effect1_dropShadow_735_8" result="shape"/>
</filter>
<linearGradient id="paint0_linear_735_8" x1="866" y1="152" x2="866" y2="1376" gradientUnits="userSpaceOnUse">
<stop stop-color="#C59FFC"/>
<stop offset="1" stop-color="#AA80F9"/>
</linearGradient>
</defs>
</svg>
