<svg width="78" height="57" viewBox="0 0 78 57" fill="none" xmlns="http://www.w3.org/2000/svg">
<path d="M28.4336 9.61719L23.3555 5.22266C18.082 8.67318 13.5247 13.6862 9.68359 20.2617C5.90755 26.7721 4.01953 33.0872 4.01953 39.207C4.01953 43.8945 5.25651 47.2799 7.73047 49.3633C10.2044 51.3815 13.2969 52.3906 17.0078 52.3906C20.1979 52.3906 22.8997 51.1536 25.1133 48.6797C27.3268 46.2057 28.4336 43.4388 28.4336 40.3789C28.4336 32.6315 24.2344 28.7578 15.8359 28.7578L15.4453 28.1719C16.7474 21.7266 21.0768 15.5417 28.4336 9.61719ZM64.5664 9.61719L59.5859 5.22266C54.2474 8.67318 49.6576 13.6862 45.8164 20.2617C42.0404 26.7721 40.1523 33.0872 40.1523 39.207C40.1523 43.8945 41.3893 47.2799 43.8633 49.3633C46.3372 51.3815 49.4622 52.3906 53.2383 52.3906C56.4284 52.3906 59.0977 51.1536 61.2461 48.6797C63.4596 46.2057 64.5664 43.4388 64.5664 40.3789C64.5664 32.6315 60.3672 28.7578 51.9688 28.7578L51.5781 28.1719C52.9453 21.7917 57.2747 15.6068 64.5664 9.61719ZM30.582 0.242188L41.4219 9.61719C34.0651 15.8672 29.3776 21.0755 27.3594 25.2422C32.0469 25.763 35.3346 27.7487 37.2227 31.1992C38.7852 25.3398 41.6497 19.5456 45.8164 13.8164C50.0482 8.08724 54.7031 3.5625 59.7812 0.242188H66.8125L77.5547 9.61719C70.263 15.8672 65.6081 21.0755 63.5898 25.2422C71.5977 26.4141 75.6016 31.4596 75.6016 40.3789C75.6016 44.806 73.7135 48.582 69.9375 51.707C66.2266 54.832 60.6602 56.3945 53.2383 56.3945C45.3607 56.3945 40.1523 53.4648 37.6133 47.6055C34.8138 53.4648 27.9453 56.3945 17.0078 56.3945C12.0599 56.3945 7.99089 55.0273 4.80078 52.293C1.61068 49.5586 0.015625 45.1966 0.015625 39.207C0.015625 32.5664 2.32682 25.4375 6.94922 17.8203C11.6367 10.2031 17.2031 4.34375 23.6484 0.242188H30.582Z" fill="white"/>
</svg>
