<svg width="79" height="57" viewBox="0 0 79 57" fill="none" xmlns="http://www.w3.org/2000/svg">
<path d="M43.1523 46.9961L48.2305 51.3906C53.569 47.9401 58.1263 42.9596 61.9023 36.4492C65.6784 29.8737 67.5664 23.526 67.5664 17.4062C67.5664 12.7188 66.3294 9.36589 63.8555 7.34766C61.4466 5.26432 58.3542 4.22266 54.5781 4.22266C51.388 4.22266 48.6862 5.45964 46.4727 7.93359C44.2591 10.4076 43.1523 13.1745 43.1523 16.2344C43.1523 23.9167 47.3841 27.7578 55.8477 27.7578L56.2383 28.4414C54.806 34.8867 50.444 41.0716 43.1523 46.9961ZM7.01953 46.9961L12 51.3906C17.3385 47.9401 21.8958 42.9596 25.6719 36.4492C29.513 29.8737 31.4336 23.526 31.4336 17.4062C31.4336 12.7188 30.1966 9.36589 27.7227 7.34766C25.2487 5.26432 22.1562 4.22266 18.4453 4.22266C15.1901 4.22266 12.4557 5.45964 10.2422 7.93359C8.09375 10.4076 7.01953 13.1745 7.01953 16.2344C7.01953 23.9167 11.2188 27.7578 19.6172 27.7578L20.0078 28.4414C18.7057 34.7565 14.3763 40.9414 7.01953 46.9961ZM18.8359 56.3711H11.8047L0.964844 46.9961C8.19141 40.8763 12.8789 35.7331 15.0273 31.5664C7.01953 30.2643 3.01562 25.1536 3.01562 16.2344C3.01562 12.0677 4.48047 8.35677 7.41016 5.10156C10.3398 1.84635 14.0182 0.21875 18.4453 0.21875C21.6354 0.21875 23.849 0.251302 25.0859 0.316406C26.388 0.38151 28.276 0.641927 30.75 1.09766C33.2891 1.55339 35.3398 2.46484 36.9023 3.83203C38.4648 5.13411 39.7669 6.85938 40.8086 9.00781C43.9987 3.14844 48.5885 0.21875 54.5781 0.21875C58.224 0.21875 61.2188 0.38151 63.5625 0.707031C65.9714 1.03255 68.4453 1.7487 70.9844 2.85547C73.5234 3.89714 75.4115 5.6224 76.6484 8.03125C77.9505 10.4401 78.6016 13.5651 78.6016 17.4062C78.6016 24.0469 76.2578 31.1758 71.5703 38.793C66.9479 46.4102 61.4141 52.2695 54.9688 56.3711H48.0352L37.1953 46.9961C44.4219 40.8763 49.0768 35.7331 51.1602 31.5664C46.5378 30.7852 43.2174 28.7995 41.1992 25.6094C39.7018 31.3385 36.8372 37.0677 32.6055 42.7969C28.4388 48.526 23.849 53.0508 18.8359 56.3711Z" fill="white"/>
</svg>
