<svg width="55" height="39" viewBox="0 0 55 39" fill="none" xmlns="http://www.w3.org/2000/svg">
<path d="M20.2946 6.67321L16.7967 3.64612C13.1642 6.02295 10.0249 9.47608 7.37905 14.0055C4.77799 18.4901 3.47746 22.8401 3.47746 27.0556C3.47746 30.2845 4.32953 32.6165 6.03367 34.0516C7.73781 35.4418 9.86799 36.1369 12.4242 36.1369C14.6216 36.1369 16.4827 35.2848 18.0075 33.5807C19.5323 31.8766 20.2946 29.9706 20.2946 27.8629C20.2946 22.5262 17.4021 19.8579 11.617 19.8579L11.3479 19.4543C12.2448 15.0145 15.2271 10.7542 20.2946 6.67321ZM45.1841 6.67321L41.7534 3.64612C38.076 6.02295 34.9144 9.47608 32.2685 14.0055C29.6674 18.4901 28.3669 22.8401 28.3669 27.0556C28.3669 30.2845 29.219 32.6165 30.9231 34.0516C32.6272 35.4418 34.7798 36.1369 37.3809 36.1369C39.5783 36.1369 41.417 35.2848 42.8969 33.5807C44.4217 31.8766 45.1841 29.9706 45.1841 27.8629C45.1841 22.5262 42.2915 19.8579 36.5064 19.8579L36.2373 19.4543C37.1791 15.0594 40.1613 10.799 45.1841 6.67321ZM21.7745 0.215418L29.2414 6.67321C24.1738 10.9784 20.9449 14.5661 19.5547 17.4362C22.7836 17.795 25.0483 19.1628 26.3488 21.5396C27.4251 17.5035 29.3983 13.5122 32.2685 9.56577C35.1834 5.61934 38.3899 2.50255 41.8879 0.215418H46.7312L54.1308 6.67321C49.1081 10.9784 45.9016 14.5661 44.5114 17.4362C50.0274 18.2434 52.7854 21.719 52.7854 27.8629C52.7854 30.9124 51.4849 33.5134 48.8838 35.666C46.3276 37.8186 42.4933 38.8949 37.3809 38.8949C31.9545 38.8949 28.3669 36.8769 26.6179 32.8407C24.6895 36.8769 19.9583 38.8949 12.4242 38.8949C9.01592 38.8949 6.21306 37.9532 4.01561 36.0696C1.81817 34.1861 0.719445 31.1814 0.719445 27.0556C0.719445 22.4814 2.31147 17.5707 5.49552 12.3238C8.72442 7.07683 12.5587 3.0407 16.9985 0.215418H21.7745Z" fill="white"/>
</svg>
