<svg width="202" height="198" viewBox="0 0 202 198" fill="none" xmlns="http://www.w3.org/2000/svg">
<g id="Group">
<path id="Vector" d="M72.3704 1.18591C54.6033 6.4948 38.6622 16.6393 26.3283 30.4859C13.9944 44.3325 5.75341 61.3358 2.52615 79.5961C-0.7011 97.8565 1.21248 116.654 8.05309 133.89C14.8937 151.125 26.3919 166.119 41.263 177.197C56.1341 188.274 73.7923 194.998 92.2647 196.618C110.737 198.238 129.296 194.689 145.868 186.369C162.44 178.049 176.372 165.285 186.108 149.503C195.844 133.721 201 115.543 201 97H181C181 111.835 176.875 126.377 169.087 139.003C161.298 151.628 150.152 161.839 136.895 168.495C123.637 175.151 108.79 177.99 94.0118 176.694C79.2338 175.398 65.1073 170.019 53.2104 161.157C41.3135 152.295 32.1149 140.3 26.6425 126.512C21.17 112.724 19.6391 97.6852 22.2209 83.0769C24.8027 68.4687 31.3955 54.866 41.2626 43.7887C51.1298 32.7114 63.8826 24.5958 78.0963 20.3487L72.3704 1.18591Z" fill="#A7A7A7" stroke="white"/>
</g>
</svg>
