<svg xmlns="http://www.w3.org/2000/svg" width="147" height="21" viewBox="0 0 147 21" fill="none">
  <path d="M10.5 1.30198L12.8156 6.86941L12.9329 7.15139L13.2373 7.1758L19.2478 7.65766L14.6685 11.5804L14.4365 11.7791L14.5074 12.0761L15.9065 17.9414L10.7606 14.7983L10.5 14.6391L10.2394 14.7983L5.09354 17.9414L6.49261 12.0761L6.56347 11.7791L6.33154 11.5804L1.75216 7.65766L7.76267 7.1758L8.06709 7.15139L8.18437 6.86941L10.5 1.30198Z" fill="#A7A7A7" stroke="#0C0C0C"/>
  <path d="M42 1.30198L44.3156 6.86941L44.4329 7.15139L44.7373 7.1758L50.7478 7.65766L46.1685 11.5804L45.9365 11.7791L46.0074 12.0761L47.4065 17.9414L42.2606 14.7983L42 14.6391L41.7394 14.7983L36.5935 17.9414L37.9926 12.0761L38.0635 11.7791L37.8315 11.5804L33.2522 7.65766L39.2627 7.1758L39.5671 7.15139L39.6844 6.86941L42 1.30198Z" fill="#A7A7A7" stroke="#0C0C0C"/>
  <path d="M73.5 1.30198L75.8156 6.86941L75.9329 7.15139L76.2373 7.1758L82.2478 7.65766L77.6685 11.5804L77.4365 11.7791L77.5074 12.0761L78.9065 17.9414L73.7606 14.7983L73.5 14.6391L73.2394 14.7983L68.0935 17.9414L69.4926 12.0761L69.5635 11.7791L69.3315 11.5804L64.7522 7.65766L70.7627 7.1758L71.0671 7.15139L71.1844 6.86941L73.5 1.30198Z" fill="#A7A7A7" stroke="#0C0C0C"/>
  <path d="M105 1.30198L107.316 6.86941L107.433 7.15139L107.737 7.1758L113.748 7.65766L109.168 11.5804L108.937 11.7791L109.007 12.0761L110.406 17.9414L105.261 14.7983L105 14.6391L104.739 14.7983L99.5935 17.9414L100.993 12.0761L101.063 11.7791L100.832 11.5804L96.2522 7.65766L102.263 7.1758L102.567 7.15139L102.684 6.86941L105 1.30198Z" fill="#A7A7A7" stroke="#0C0C0C"/>
  <path d="M136.5 1.30198L138.816 6.86941L138.933 7.15139L139.237 7.1758L145.248 7.65766L140.668 11.5804L140.437 11.7791L140.507 12.0761L141.906 17.9414L136.761 14.7983L136.5 14.6391L136.239 14.7983L131.094 17.9414L132.493 12.0761L132.563 11.7791L132.332 11.5804L127.752 7.65766L133.763 7.1758L134.067 7.15139L134.184 6.86941L136.5 1.30198Z" fill="#E9E9E9" stroke="black"/>
</svg>