<svg width="42" height="39" viewBox="0 0 42 39" fill="none" xmlns="http://www.w3.org/2000/svg">
<path id="Vector" fill-rule="evenodd" clip-rule="evenodd" d="M11.6702 0.631836H30.3299C36.3227 0.631836 41.2521 5.22371 41.2521 10.8062V28.0938C41.2521 33.6763 36.3157 38.2682 30.3299 38.2682H11.6702C5.67741 38.2682 0.748047 33.6697 0.748047 28.0938V10.8062C0.748047 5.22371 5.68446 0.631836 11.6702 0.631836ZM31.8715 7.20105C32.4842 7.20886 33.0695 7.43908 33.5028 7.84271C33.9361 8.24635 34.1832 8.79154 34.1916 9.36231C34.1832 9.93296 33.936 10.478 33.5027 10.8814C33.0693 11.2849 32.4841 11.5148 31.8715 11.5223C31.5658 11.5262 31.2623 11.473 30.979 11.3658C30.6957 11.2586 30.4384 11.0997 30.2221 10.8984C30.0058 10.697 29.8351 10.4574 29.7199 10.1936C29.6047 9.92975 29.5474 9.6471 29.5513 9.36231C29.5474 9.07747 29.6047 8.79476 29.7198 8.53087C29.835 8.26697 30.0058 8.02724 30.222 7.8258C30.4383 7.62437 30.6956 7.46531 30.9789 7.35801C31.2622 7.25071 31.5657 7.19734 31.8715 7.20105ZM20.9493 9.18232H21.0452C27.038 9.18232 32.0647 13.8635 32.0647 19.4461C32.0647 25.1192 27.038 29.7111 21.0452 29.7111H20.9493C14.9565 29.7111 10.0271 25.1192 10.0271 19.4461C10.0271 13.8635 14.9635 9.18232 20.9493 9.18232ZM20.9493 12.6929H21.0452C25.0084 12.6929 28.2947 15.7542 28.2947 19.4461C28.2947 23.2273 25.0084 26.2899 21.0452 26.2899H20.9493C16.986 26.2899 13.6998 23.2273 13.6998 19.4461C13.6998 15.7542 16.986 12.6929 20.9493 12.6929ZM11.7661 3.87834H30.2283C32.2272 3.88077 34.1433 4.6216 35.5566 5.93833C36.9698 7.25506 37.7647 9.04018 37.767 10.9021V28.0044C37.7643 29.8662 36.9693 31.6509 35.5561 32.9674C34.1429 34.2838 32.2269 35.0245 30.2283 35.0269H11.7661C9.76769 35.0241 7.85194 34.2834 6.43882 32.967C5.0257 31.6506 4.2305 29.866 4.22751 28.0044V10.8969C4.23162 9.03594 5.02731 7.25237 6.44031 5.93685C7.85331 4.62133 9.76842 3.88112 11.7661 3.87834Z" fill="#B68DFB"/>
</svg>
